<svg>
<symbol id="Logo" xmlns="http://www.w3.org/2000/svg" width="53.547" height="72" viewBox="0 0 53.547 72">
  <path  d="M274.714,88.981A46.974,46.974,0,0,1,271.3,103.7c-.623,1.417-1.756,2.767-2.279,4.3h-.228v-1.132c.428-.665.219-1.574.456-2.49,1.128-4.357,1.213-10.17-.684-13.811-3.24-6.221-9.728-4.129-16.182-6.793a12.43,12.43,0,0,1-5.7-5.434l-1.367-3.849A14.907,14.907,0,0,1,246,66.339c3.107-8.131,10.872-11.709,20.284-7.245v-.679c-.807-1.1-.545-2.733-.912-4.3-.985-4.219-1.744-18.067,2.963-18.113,1.277.926,3.731.885,3.874,2.944-.376.405-.4.569-.456,1.358h.228v-.226c.981-1.03,1.25-3.371,2.963-3.623,1.368,1.22,3.684,1.463,4.1,3.623a17.484,17.484,0,0,0-2.735,5.887h.456c1.428-1.877,7.312-7.251,10.028-6.793a14.129,14.129,0,0,1,2.051,4.3c-1.435.51-2.1,1.9-3.191,2.717-4,3-7.232,7.374-9.8,11.774h.684c1.569-1.22,7.973-1.811,10.712-1.132,7.223,1.792,9.252,4.271,10.94,11.547a13.416,13.416,0,0,1,.228,4.755c-2.183,9.442-6.79,14.209-16.41,16.3C279.436,89.993,276.873,89.1,274.714,88.981Z" transform="translate(-245.004 -36)" />
</symbol>


<symbol id="behance" xmlns="http://www.w3.org/2000/svg" width="32.001" height="32.001" viewBox="0 0 32.001 32.001">
  <path  d="M685,4369a16,16,0,1,1,11.314-4.687A15.895,15.895,0,0,1,685,4369Zm5.5-18.929a4.377,4.377,0,0,0-4.577,4.473,4.555,4.555,0,0,0,8.852,1.408h-2.155a2.319,2.319,0,0,1-2.035,1.295c-1.319,0-2.117-.881-2.189-2.417h6.43a4.606,4.606,0,0,0-1.1-3.507A4.283,4.283,0,0,0,690.5,4350.072ZM675,4347v11.772h5.965c2,0,4.344-.889,4.344-3.393a2.868,2.868,0,0,0-2.26-2.965,2.558,2.558,0,0,0,1.673-2.441c0-1.973-1.322-2.974-3.93-2.974Zm13.22.791v1.57h4.93v-1.57Zm-7.617,9.08h-3.128v-3.212h3.18c1.24,0,1.869.563,1.869,1.671C682.524,4356.366,681.9,4356.87,680.6,4356.87Zm11.778-3.563H688.4c.018-.348.221-1.481,2.033-1.481,1.262,0,1.735.36,1.949,1.48Zm-11.934-1.6h-2.973v-2.736h2.766c.8,0,1.862.139,1.862,1.344C682.1,4351.215,681.515,4351.709,680.447,4351.709Z" transform="translate(-669 -4337)" />
</symbol>



<symbol id="linked-in" xmlns="http://www.w3.org/2000/svg" width="32" height="32" viewBox="0 0 32 32.001">
  <path d="M351,4369a16,16,0,1,1,11.314-4.687A15.895,15.895,0,0,1,351,4369Zm-3.27-21.007V4360l3.258,0v-4.357a11.8,11.8,0,0,1,.162-2.5,3.257,3.257,0,0,1,1.122-1.739,3.07,3.07,0,0,1,1.936-.627,2.652,2.652,0,0,1,1.461.379,2.017,2.017,0,0,1,.829,1.1,11.483,11.483,0,0,1,.238,2.933V4360H360v-7.559a4,4,0,0,0-1.351-3.219,5.018,5.018,0,0,0-3.5-1.281,5.158,5.158,0,0,0-1.865.347,9.706,9.706,0,0,0-2.275,1.309v-1.6Zm-5.73,0V4360h3.274v-12.006Zm1.634-3.994a1.608,1.608,0,0,0-1.15.459,1.492,1.492,0,0,0-.476,1.108,1.563,1.563,0,0,0,.481,1.15,1.607,1.607,0,0,0,1.163.473,1.586,1.586,0,0,0,1.14-.464,1.515,1.515,0,0,0,.477-1.123,1.534,1.534,0,0,0-.481-1.136A1.608,1.608,0,0,0,343.634,4344Z" transform="translate(-335 -4337)" />
</symbol>

<symbol id="google_" xmlns="http://www.w3.org/2000/svg" width="32" height="32" viewBox="0 0 32 32">
  <path data-name="google+" d="M396,4369c-.541,0-1.089-.027-1.626-.082a6.374,6.374,0,0,0,3.871-5.618c0-2.459-1.395-3.675-2.872-4.962l-1.232-.993-.015-.012a1.945,1.945,0,0,1-.875-1.511,2.432,2.432,0,0,1,.908-1.686l.05-.052c1.346-1.1,2.872-2.341,2.872-5.033a6,6,0,0,0-2.427-4.786h2.12l2.188-1.277h-7.045a9.1,9.1,0,0,0-6.123,1.95,6.486,6.486,0,0,0-2.19,4.75,5.5,5.5,0,0,0,5.679,5.564c.328,0,.695-.034,1.049-.067h.011l.036,0-.047.115a3.014,3.014,0,0,0-.3,1.269,3.624,3.624,0,0,0,.957,2.32l.068.091-.084.006c-1.526.1-4.366.3-6.45,1.624a5.883,5.883,0,0,0-1.675,1.516A16,16,0,1,1,396,4369Zm5.91-21v3h2v-3h3v-2h-3v-3h-2v3h-3v2Zm-10.041,20.461h0a16.02,16.02,0,0,1-6.948-3.918c-.011-.119-.016-.238-.016-.356a3.927,3.927,0,0,1,2.942-3.651,13.366,13.366,0,0,1,3.592-.568,5.249,5.249,0,0,1,.786.036c2.518,1.855,3.729,2.829,3.729,4.68,0,2.093-1.527,3.505-4.085,3.778Zm-.977-14.2A3.812,3.812,0,0,1,387.65,4352a8.954,8.954,0,0,1-1.035-4.045,4.116,4.116,0,0,1,.753-2.624,3.174,3.174,0,0,1,2.394-1.169c2.776,0,4.311,3.856,4.311,6.521a3.715,3.715,0,0,1-.854,2.588A3.447,3.447,0,0,1,390.892,4354.261Z" transform="translate(-380 -4337)" />
</symbol>


<symbol id="facebook" xmlns="http://www.w3.org/2000/svg" width="32" height="32.001" viewBox="0 0 32 32.001">
  <path  d="M440,4369a16,16,0,1,1,11.314-4.687A15.895,15.895,0,0,1,440,4369Zm-1-15v9h4v-9h2l1-4h-3v-2c0-.8.959-.992,1-1h2v-4h-3.874a3.06,3.06,0,0,0-2.486.979A4.113,4.113,0,0,0,439,4347v3h-2v4Z" transform="translate(-424 -4337)" />
</symbol>
 
<symbol id="twitter" xmlns="http://www.w3.org/2000/svg" width="32.001" height="32.001" viewBox="0 0 32.001 32.001">
  <path  d="M485,4369a16,16,0,1,1,11.314-4.687A15.9,15.9,0,0,1,485,4369Zm-8.1-9.5h0a9.835,9.835,0,0,0,5.661,1.813c6.578,0,10.509-5.844,10.509-11.494,0-.158,0-.324-.011-.523a7.886,7.886,0,0,0,1.843-2.091,6.9,6.9,0,0,1-2.122.636,4,4,0,0,0,1.624-2.234,7,7,0,0,1-2.345.98,3.566,3.566,0,0,0-2.7-1.275,3.883,3.883,0,0,0-3.694,4.04,4.442,4.442,0,0,0,.1.92,10.243,10.243,0,0,1-7.612-4.221,4.329,4.329,0,0,0-.5,2.031,4.152,4.152,0,0,0,1.643,3.363,3.447,3.447,0,0,1-1.672-.505c0,.017,0,.033,0,.05a3.979,3.979,0,0,0,2.963,3.962,3.4,3.4,0,0,1-1.668.069,3.749,3.749,0,0,0,3.451,2.8,6.977,6.977,0,0,1-4.588,1.73A6.759,6.759,0,0,1,476.9,4359.5Z" transform="translate(-469 -4337)" />
</symbol>





</svg>


