<svg>

<symbol id="search_icon" xmlns="http://www.w3.org/2000/svg" width="19.986" height="20.043" viewBox="0 0 19.986 20.043">
  <path d="M1207.993,445.98l-1.044,1.047-5.767-5.784a6.589,6.589,0,0,1-1.094.8,8.519,8.519,0,0,1-1.243.6,7.122,7.122,0,0,1-1.367.374,8.29,8.29,0,0,1-1.417.125,7.716,7.716,0,0,1-3.157-.648,8.318,8.318,0,0,1-2.56-1.745,8,8,0,0,1-1.715-2.568,7.914,7.914,0,0,1-.622-3.116,7.993,7.993,0,0,1,8.054-8.077,7.868,7.868,0,0,1,3.107.623,8.018,8.018,0,0,1,2.561,1.72,8.39,8.39,0,0,1,1.74,2.568,7.793,7.793,0,0,1,.646,3.166,8.428,8.428,0,0,1-.124,1.421,7.271,7.271,0,0,1-.373,1.371,8.694,8.694,0,0,1-.6,1.246,6.61,6.61,0,0,1-.8,1.1l5.767,5.784Zm-19.141-10.919a7.088,7.088,0,0,0,2.088,5.086,7.385,7.385,0,0,0,2.312,1.57,6.959,6.959,0,0,0,2.809.573,6.787,6.787,0,0,0,2.784-.573,7.547,7.547,0,0,0,3.853-3.864,6.847,6.847,0,0,0,.572-2.792,7.023,7.023,0,0,0-.572-2.817,7.45,7.45,0,0,0-1.566-2.318,7.158,7.158,0,0,0-2.287-1.546,7.061,7.061,0,0,0-2.784-.548,7.24,7.24,0,0,0-2.809.548,7.1,7.1,0,0,0-3.853,3.864,7.284,7.284,0,0,0-.547,2.817Z" transform="translate(-1188.007 -426.984)" fill="#fff"/>
</symbol> 

<symbol id="scroll_down_icon" xmlns="http://www.w3.org/2000/svg" width="13.5" height="7.664" viewBox="0 0 13.5 7.664">
  <path d="M896.125,616.651l-3.375-3.375.844-.844,5.906,5.906,5.906-5.977.844.844-6.75,6.82-.844-.844Z" transform="translate(-892.75 -612.362)" fill="#fff"/>
</symbol> 

<symbol id="dotted_path" xmlns="http://www.w3.org/2000/svg" viewBox="0 0 778.413 96.297">
  <path id="Shape_1" data-name="Shape 1" d="M513,1661s50.063-55.26,125.7-81.221c72.736-24.966,169.075-22.883,267.36,81.221,0,0,117.946-143.028,274.422-78.144,34.967,14.5,71.723,39.241,109.519,78.144" transform="translate(-512.294 -1565.458)" fill="none" stroke="#fff" stroke-linecap="round" stroke-width="1" stroke-dasharray="0 5" opacity="0.502"/>
</symbol>

<symbol id="magnifier_icon" xmlns="http://www.w3.org/2000/svg" width="56.531" height="56.531" viewBox="0 0 56.531 56.531">
  <path d="M548.266,1673.812l-2.953,2.953L529,1660.453a18.616,18.616,0,0,1-3.094,2.25,24.169,24.169,0,0,1-3.516,1.688,20.231,20.231,0,0,1-3.867,1.055,23.511,23.511,0,0,1-4.008.352,21.872,21.872,0,0,1-8.93-1.828,23.519,23.519,0,0,1-7.242-4.922,22.551,22.551,0,0,1-4.852-7.242,22.264,22.264,0,0,1-1.758-8.789,22.591,22.591,0,0,1,22.781-22.781,22.315,22.315,0,0,1,8.789,1.758,22.673,22.673,0,0,1,7.242,4.852,23.647,23.647,0,0,1,4.922,7.242,21.926,21.926,0,0,1,1.828,8.93,23.7,23.7,0,0,1-.352,4.008,20.476,20.476,0,0,1-1.055,3.867,24.5,24.5,0,0,1-1.687,3.516,18.665,18.665,0,0,1-2.25,3.094l16.313,16.312Zm-54.141-30.8a19.963,19.963,0,0,0,5.906,14.344,20.881,20.881,0,0,0,6.539,4.43,19.724,19.724,0,0,0,7.945,1.617,19.241,19.241,0,0,0,7.875-1.617,21.315,21.315,0,0,0,10.9-10.9,19.267,19.267,0,0,0,1.617-7.875,19.769,19.769,0,0,0-1.617-7.945,21.008,21.008,0,0,0-4.43-6.539,20.252,20.252,0,0,0-6.469-4.36,20.019,20.019,0,0,0-7.875-1.547,20.524,20.524,0,0,0-7.945,1.547,20.038,20.038,0,0,0-10.9,10.9,20.493,20.493,0,0,0-1.547,7.945Z" transform="translate(-491.734 -1620.234)" fill="#5474fd"/>
</symbol>


<symbol id="checkmark_icon" xmlns="http://www.w3.org/2000/svg" width="59.906" height="59.906" viewBox="0 0 59.906 59.906">
  <path  d="M900,1619.547a29.936,29.936,0,1,1-11.672,2.32,29.649,29.649,0,0,1,11.672-2.32Zm0,57.516a26.569,26.569,0,0,0,10.758-2.18,26.651,26.651,0,0,0,14.625-14.625,27.636,27.636,0,0,0,0-21.516,26.649,26.649,0,0,0-14.625-14.625,27.635,27.635,0,0,0-21.516,0,26.649,26.649,0,0,0-14.625,14.625,27.636,27.636,0,0,0,0,21.516,26.651,26.651,0,0,0,14.625,14.625,26.554,26.554,0,0,0,10.758,2.18Zm15.047-38.25a1.409,1.409,0,0,1,1.2-.562,1.835,1.835,0,0,1,1.336.562,2.169,2.169,0,0,1,.422,1.336,1.41,1.41,0,0,1-.562,1.2l-20.531,19.969a.656.656,0,0,1-.492.352,3.159,3.159,0,0,1-.633.07,3.83,3.83,0,0,1-.773-.07.649.649,0,0,1-.492-.352L886.5,1653.3a1.818,1.818,0,0,1-.562-1.336,1.949,1.949,0,0,1,1.758-1.758,1.835,1.835,0,0,1,1.336.562l6.75,6.75,19.266-18.7Z" transform="translate(-870.047 -1619.547)" fill="#ff6363"/>
</symbol>

<symbol id="like_icon" xmlns="http://www.w3.org/2000/svg" width="61.313" height="58.781" viewBox="0 0 61.313 58.781">
  <path  d="M1310.586,1648.656a5.76,5.76,0,0,1-.281,1.828,5.031,5.031,0,0,1-.844,1.547,4.758,4.758,0,0,1-1.266,1.125,7.776,7.776,0,0,1-1.547.7,8.75,8.75,0,0,1,.7,1.477,5.146,5.146,0,0,1,.281,1.758,5.326,5.326,0,0,1-.281,1.688,7.836,7.836,0,0,1-.7,1.547,9.419,9.419,0,0,1-1.266,1.055,6.937,6.937,0,0,1-1.406.774,7.9,7.9,0,0,1,.7,1.547,5.33,5.33,0,0,1,.281,1.688,5.133,5.133,0,0,1-.281,1.758,8.6,8.6,0,0,1-.7,1.476,6.066,6.066,0,0,1-1.266,1.2,3.7,3.7,0,0,1-1.547.633,5.333,5.333,0,0,1,.844,1.476,5.15,5.15,0,0,1,.281,1.758,4.954,4.954,0,0,1-.422,1.969,5.313,5.313,0,0,1-1.125,1.688,7.38,7.38,0,0,1-1.828,1.125,5.3,5.3,0,0,1-2.109.422h-18.562a10.4,10.4,0,0,1-2.25-.281,17.14,17.14,0,0,1-2.672-.844,22.722,22.722,0,0,1-2.812-1.055q-1.407-.633-2.813-1.2-1.687-.7-3.3-1.406a6.935,6.935,0,0,0-2.32-.7h-12.8v-27.422l1.125-.141h10.969a8.925,8.925,0,0,0,2.32-.281,6.46,6.46,0,0,0,2.18-1.125,22.721,22.721,0,0,0,2.883-1.969q1.615-1.266,3.867-3.094a14.173,14.173,0,0,0,5.133-9.141q.771-5.484.773-6.328a3.333,3.333,0,0,1,.422-1.617,3.076,3.076,0,0,1,1.125-1.2,4.086,4.086,0,0,1,1.476-.773,5.591,5.591,0,0,1,1.477-.211,9.291,9.291,0,0,1,2.25.281,4.587,4.587,0,0,1,2.109,1.266,6.785,6.785,0,0,1,1.547,2.6,13.431,13.431,0,0,1,.563,4.289,28.833,28.833,0,0,1-.352,4.57,36.241,36.241,0,0,1-.914,4.149,23.052,23.052,0,0,1-1.055,3.586q-.633,1.618-1.055,2.742h19.125a6.11,6.11,0,0,1,2.18.352,6.3,6.3,0,0,1,1.758,1.055,4.64,4.64,0,0,1,1.055,1.617,5.682,5.682,0,0,1,.352,2.039Zm-5.344,2.953a3.593,3.593,0,0,0,1.266-.211,1.7,1.7,0,0,0,.844-.633,4.333,4.333,0,0,0,.7-.914,2.375,2.375,0,0,0,.281-1.2,2.7,2.7,0,0,0-.844-1.969,3.043,3.043,0,0,0-2.25-.844H1282.32l.844-1.687q3.935-9.7,3.938-15.609,0-4.641-1.547-5.414a6.071,6.071,0,0,0-2.531-.773,3.236,3.236,0,0,0-1.266.422,1.268,1.268,0,0,0-.844,1.125q0,.844-.141,2.813a23.363,23.363,0,0,1-.844,4.5,29.189,29.189,0,0,1-2.039,5.2,14.2,14.2,0,0,1-3.727,4.641q-2.393,1.971-4.008,3.3a25.117,25.117,0,0,1-3.024,2.18,12.445,12.445,0,0,1-2.812,1.266,10.226,10.226,0,0,1-2.953.422h-9.7v22.781h10.406a7.62,7.62,0,0,1,2.6.633q1.615.633,4.008,1.617,1.124.564,2.461,1.2a23.184,23.184,0,0,0,2.6,1.055q1.4.422,2.531.774a6.7,6.7,0,0,0,1.969.352H1296.8a2.777,2.777,0,0,0,1.266-.281,3.766,3.766,0,0,0,.984-.7,1.681,1.681,0,0,0,.633-.844,3.173,3.173,0,0,0,.211-1.125,3.036,3.036,0,0,0-.211-1.2,2.929,2.929,0,0,0-.633-.914,2.748,2.748,0,0,0-.984-.633,3.585,3.585,0,0,0-1.266-.211h-.281v-2.391h3.234a3.2,3.2,0,0,0,1.125-.211,2.745,2.745,0,0,0,.984-.633,9.451,9.451,0,0,0,.563-.984,2.39,2.39,0,0,0,0-2.25,2.155,2.155,0,0,0-1.547-1.547,2.514,2.514,0,0,0-1.125-.281h-.984v-2.39h3.516a3.2,3.2,0,0,0,1.125-.211,2.742,2.742,0,0,0,.984-.633,3.773,3.773,0,0,0,.7-.984,2.5,2.5,0,0,0,.281-1.125,2.8,2.8,0,0,0-.281-1.266,2.155,2.155,0,0,0-.7-.844,3.811,3.811,0,0,0-.984-.7,2.514,2.514,0,0,0-1.125-.281h-1.125v-2.391Z" transform="translate(-1249.273 -1620.109)" fill="#00a2ff"/>
</symbol>


<symbol id="facebook_icon" xmlns="http://www.w3.org/2000/svg" xmlns:xlink="http://www.w3.org/1999/xlink" viewBox="0 0 30 30">
<path  d="M17.3,27.5V16.3h3.4l0.6-5h-4V8.8c0-1.3,0-2.6,1.8-2.6h1.8V2.7
	c0-0.1-1.6-0.2-3.1-0.2c-3.3,0-5.4,2.1-5.4,5.9v2.9H8.8v5h3.7v11.3H17.3z"/>
</symbol>

<symbol  id="pinterest_icon" xmlns="http://www.w3.org/2000/svg" xmlns:xlink="http://www.w3.org/1999/xlink" viewBox="0 0 30 30">
  <path d="M15,2.5C8.1,2.5,2.5,8.1,2.5,15c0,5.3,3.3,9.8,7.9,11.6c-0.1-1-0.2-2.5,0-3.6
    c0.2-1,1.5-6.2,1.5-6.2s-0.4-0.7-0.4-1.8c0-1.7,1-3,2.3-3c1.1,0,1.6,0.8,1.6,1.8c0,1.1-0.7,2.7-1,4.2c-0.3,1.2,0.6,2.3,1.9,2.3
    c2.2,0,3.9-2.3,3.9-5.7c0-3-2.2-5.1-5.2-5.1c-3.6,0-5.7,2.7-5.7,5.4c0,1.1,0.4,2.2,0.9,2.8c0.1,0.1,0.1,0.2,0.1,0.4
    c-0.1,0.4-0.3,1.2-0.4,1.4c-0.1,0.2-0.2,0.3-0.4,0.2C8,18.8,7,16.5,7,14.7c0-3.9,2.9-7.5,8.3-7.5c4.3,0,7.7,3.1,7.7,7.2
    c0,4.3-2.7,7.8-6.5,7.8c-1.3,0-2.5-0.7-2.9-1.4c0,0-0.6,2.4-0.8,3c-0.3,1.1-1,2.4-1.6,3.3c1.2,0.4,2.4,0.6,3.7,0.6
    c6.9,0,12.5-5.6,12.5-12.5C27.5,8.1,21.9,2.5,15,2.5z"/>
</symbol>


<symbol id="twitter_icon" xmlns="http://www.w3.org/2000/svg" xmlns:xlink="http://www.w3.org/1999/xlink" viewBox="0 0 30 30">
  <path d="M10.4,25C19.8,25,25,17.3,25,10.6c0-0.2,0-0.4,0-0.7c1-0.7,1.9-1.6,2.6-2.6
    c-0.9,0.4-1.9,0.7-2.9,0.8c1.1-0.6,1.9-1.6,2.3-2.8c-1,0.6-2.1,1-3.3,1.2c-1.9-2-5.2-2.1-7.3-0.2c-1.3,1.2-1.9,3.1-1.5,4.8
    c-4.1-0.2-8-2.1-10.6-5.3c-1.4,2.3-0.7,5.3,1.6,6.7c-0.8,0-1.6-0.2-2.3-0.6v0.1c0,2.4,1.7,4.5,4.1,4.9c-0.8,0.2-1.5,0.2-2.3,0.1
    c0.7,2.1,2.6,3.5,4.8,3.5C8.3,22,6,22.8,3.7,22.8c-0.4,0-0.8,0-1.2-0.1C4.8,24.2,7.6,25,10.4,25"/>
</symbol>


<symbol id="linkedin_icon" xmlns="http://www.w3.org/2000/svg" xmlns:xlink="http://www.w3.org/1999/xlink" viewBox="0 0 30 30" >
  <path d="M27.5,27.5h-5v-8.7c0-2.4-1.1-3.7-3-3.7c-2.1,0-3.3,1.4-3.3,3.7v8.7h-5V11.3h5v1.8
    c0,0,1.6-2.8,5.1-2.8c3.5,0,6.1,2.2,6.1,6.6V27.5L27.5,27.5z M5.6,8.7c-1.7,0-3.1-1.4-3.1-3.1c0-1.7,1.4-3.1,3.1-3.1
    c1.7,0,3.1,1.4,3.1,3.1C8.6,7.3,7.2,8.7,5.6,8.7L5.6,8.7z M2.5,27.5h6.3V11.3H2.5V27.5z"/>
</symbol>


<symbol id="youtube_icon" xmlns="http://www.w3.org/2000/svg" xmlns:xlink="http://www.w3.org/1999/xlink" viewBox="0 0 30 30" >
  <path  d="M26.4,7.7c-0.4-0.6-1.2-1-1.9-1.1c-2.3-0.4-16.6-0.4-18.9,0C4.9,6.7,4.4,7,3.9,7.4
    C1.9,9.3,2.5,19.3,3,20.9c0.2,0.7,0.5,1.2,0.8,1.5c0.4,0.4,1,0.7,1.7,0.9c1.9,0.4,11.6,0.6,18.9,0.1c0.7-0.1,1.3-0.4,1.7-0.9
    C28,20.7,27.9,10.1,26.4,7.7z M12.5,18.2v-7c2.5,1.2,4.4,2.3,6.7,3.5C17.3,15.8,15,17,12.5,18.2z"/>
</symbol>


<symbol id="cross_icon" xmlns="http://www.w3.org/2000/svg" xmlns:xlink="http://www.w3.org/1999/xlink" viewBox="0 0 40 40">
    	<path class="st0" d="M35.2,32.4l-2.8,2.8c-0.4,0.4-1.1,0.4-1.5,0L20.8,25.1c-0.4-0.4-1.1-0.4-1.5,0L9.1,35.2
		c-0.4,0.4-1.1,0.4-1.5,0l-2.8-2.8c-0.4-0.4-0.4-1.1,0-1.5l10.1-10.1c0.4-0.4,0.4-1.1,0-1.5L4.8,9.1C4.4,8.7,4.4,8,4.8,7.6l2.8-2.8
		c0.4-0.4,1.1-0.4,1.5,0l10.1,10.1c0.4,0.4,1.1,0.4,1.5,0L30.9,4.8c0.4-0.4,1.1-0.4,1.5,0l2.8,2.8c0.4,0.4,0.4,1.1,0,1.5L25.1,19.2
		c-0.4,0.4-0.4,1.1,0,1.5l10.1,10.1C35.6,31.3,35.6,32,35.2,32.4z"/>
</symbol>


<symbol id="burger_icon" xmlns="http://www.w3.org/2000/svg" xmlns:xlink="http://www.w3.org/1999/xlink" viewBox="0 0 40 40">
   <path d="M38.4,11.1H1.6c-0.6,0-1.1-0.5-1.1-1.1v-4C0.5,5.5,1,5,1.6,5h36.9c0.6,0,1.1,0.5,1.1,1.1v4
		C39.5,10.6,39,11.1,38.4,11.1z"/>
	<path d="M38.4,23.5H1.6c-0.6,0-1.1-0.5-1.1-1.1v-4c0-0.6,0.5-1.1,1.1-1.1h36.9c0.6,0,1.1,0.5,1.1,1.1v4
		C39.5,23.1,39,23.5,38.4,23.5z"/>
	<path d="M38.4,35H1.6c-0.6,0-1.1-0.5-1.1-1.1v-4c0-0.6,0.5-1.1,1.1-1.1h36.9c0.6,0,1.1,0.5,1.1,1.1v4
		C39.5,34.5,39,35,38.4,35z"/>
</symbol>
 







</svg>




























